<svg width="59" height="147" viewBox="0 0 59 147" fill="none" xmlns="http://www.w3.org/2000/svg">
    <g clip-path="url(#clip0_46_908)">
    <path d="M31.5636 46.4045H27.442V51.5056H31.5636V46.4045Z" fill="#91B9B4"/>
    <path d="M31.105 14.0881H27.895V27.6763H31.105V14.0881Z" fill="#91B9B4"/>
    <path d="M31.105 0.5H27.895V14.0881H31.105V0.5Z" fill="#A7C7C3"/>
    <path d="M31.105 6.60352H27.895V8.057H31.105V6.60352Z" fill="#91B9B4"/>
    <path d="M31.105 9.59958H27.895V11.0531H31.105V9.59958Z" fill="#91B9B4"/>
    <path d="M31.105 3.60187H27.895V5.05535H31.105V3.60187Z" fill="#91B9B4"/>
    <path d="M31.5636 27.6762H27.442V46.41H31.5636V27.6762Z" fill="#A7C7C3"/>
    <path d="M31.5636 36.9763H27.442V38.0288H31.5636V36.9763Z" fill="#91B9B4"/>
    <path d="M31.5636 32.1592H27.442V33.2173H31.5636V32.1592Z" fill="#91B9B4"/>
    <path d="M31.5636 41.7878H27.442V42.8459H31.5636V41.7878Z" fill="#91B9B4"/>
    <path d="M28.5381 51.5056H25.3224V248.5H28.5381V51.5056Z" fill="#91B9B4"/>
    <path d="M29.4441 48.1921H28.5381V248.506H29.4441V48.1921Z" fill="#9CC0BC"/>
    <path d="M24.7744 51.5056H22.8115V248.5H24.7744V51.5056Z" fill="#91B9B4"/>
    <path d="M25.3224 48.1921H24.7688V248.506H25.3224V48.1921Z" fill="#9CC0BC"/>
    <path d="M32.6541 51.5056H29.4385V248.5H32.6541V51.5056Z" fill="#91B9B4"/>
    <path d="M33.5601 48.1921H32.6541V248.506H33.5601V48.1921Z" fill="#9CC0BC"/>
    <path d="M36.1886 51.5056H33.5601V248.5H36.1886V51.5056Z" fill="#91B9B4"/>
    <path d="M42.4856 105.24H16.52V108.409H42.4856V105.24Z" fill="#A7C7C3"/>
    <path d="M38.4814 105.24H20.5242V108.409H38.4814V105.24Z" fill="#91B9B4"/>
    <path d="M42.4856 82.6859H16.52V84.0725H42.4856V82.6859Z" fill="#A7C7C3"/>
    <path d="M38.4814 82.6859H20.5242V84.0725H38.4814V82.6859Z" fill="#91B9B4"/>
    <path d="M50.6729 61.4127L44.0067 58.244H29.5H14.9933L8.3271 61.4127L1.00104 69.8217H29.5H57.999L50.6729 61.4127Z" fill="#9CC0BC"/>
    <path d="M59 70.3174H0L8.13697 60.9783L14.9262 57.7539H44.0738L50.891 60.9783L59 70.3174ZM1.99649 69.3261H57.0035L50.4827 61.8471L43.9452 58.7396H15.0548L8.51725 61.8471L1.99649 69.3261Z" fill="#91B9B4"/>
    <path d="M8.3271 79.0215L14.9933 82.1902H29.5H44.0067L50.6729 79.0215L57.999 70.6125H29.5H1.00104L8.3271 79.0215Z" fill="#9CC0BC"/>
    <path d="M44.0738 82.6859H14.9262L8.13697 79.4559L0 70.1113H59L50.891 79.4559L44.0738 82.6859ZM15.0548 81.6946H43.9452L50.4827 78.5872L57.0035 71.1081H1.99649L8.51725 78.5872L15.0548 81.6946Z" fill="#91B9B4"/>
    <path d="M58.0045 69.8217H1.00104V70.6125H58.0045V69.8217Z" fill="#91B9B4"/>
    <path d="M20.7814 69.8217H20.7423C20.6859 69.8089 20.6331 69.7837 20.5876 69.7481C20.5422 69.7124 20.5052 69.6672 20.4794 69.6157L15.0995 59.6975L11.5259 69.5544C11.5066 69.6291 11.4645 69.696 11.4054 69.7458C11.3463 69.7957 11.2731 69.8261 11.196 69.8329C11.1181 69.8264 11.0441 69.7962 10.9841 69.7464C10.924 69.6966 10.8809 69.6295 10.8604 69.5544L8.1649 62.0642C8.11555 61.9503 8.1058 61.8233 8.1372 61.7032C8.16861 61.5832 8.23937 61.477 8.33827 61.4015C8.52282 61.2846 8.74092 61.4015 8.8304 61.6299L11.1848 68.19L14.6913 58.5224C14.7098 58.4528 14.7481 58.3899 14.8017 58.3415C14.8553 58.2931 14.9218 58.2611 14.9932 58.2495C15.0622 58.2458 15.1306 58.263 15.1895 58.2988C15.2484 58.3346 15.295 58.3873 15.3232 58.45L20.8261 68.591L29.2148 58.3776C29.2415 58.3326 29.2795 58.2953 29.3251 58.2694C29.3707 58.2434 29.4223 58.2298 29.4748 58.2298C29.5273 58.2298 29.5789 58.2434 29.6245 58.2694C29.6701 58.2953 29.7082 58.3326 29.7349 58.3776C29.8063 58.4808 29.8445 58.6032 29.8445 58.7285C29.8445 58.8538 29.8063 58.9761 29.7349 59.0793L21.0386 69.6602C21.0116 69.7054 20.9742 69.7436 20.9295 69.7717C20.8847 69.7997 20.834 69.8169 20.7814 69.8217Z" fill="#91B9B4"/>
    <path d="M38.2186 69.8217H38.2578C38.3148 69.8104 38.3683 69.7859 38.414 69.7501C38.4596 69.7142 38.4962 69.6682 38.5206 69.6157L43.9005 59.6975L47.4741 69.5544C47.4934 69.6291 47.5355 69.696 47.5946 69.7458C47.6537 69.7957 47.7269 69.8261 47.804 69.8329C47.8819 69.8264 47.9559 69.7962 48.0159 69.7464C48.076 69.6966 48.1191 69.6295 48.1396 69.5544L50.8351 62.0754C50.8805 61.9614 50.8887 61.836 50.8586 61.7171C50.8285 61.5982 50.7615 61.4917 50.6673 61.4127C50.4828 61.2957 50.2591 61.4127 50.1696 61.641L47.804 68.2012L44.2976 58.5336C44.2795 58.4646 44.2419 58.4023 44.1894 58.354C44.1369 58.3056 44.0716 58.2732 44.0012 58.2607C43.9315 58.2566 43.8621 58.2735 43.8023 58.3093C43.7424 58.3451 43.6948 58.398 43.6656 58.4612L38.1627 68.6021L29.7741 58.3888C29.7474 58.3437 29.7093 58.3064 29.6637 58.2805C29.6181 58.2546 29.5665 58.2409 29.514 58.2409C29.4615 58.2409 29.4099 58.2546 29.3643 58.2805C29.3187 58.3064 29.2807 58.3437 29.254 58.3888C29.1825 58.4919 29.1443 58.6143 29.1443 58.7396C29.1443 58.8649 29.1825 58.9873 29.254 59.0904L37.9502 69.6714C37.9796 69.7159 38.0193 69.7529 38.066 69.779C38.1127 69.8052 38.1651 69.8198 38.2186 69.8217Z" fill="#91B9B4"/>
    <path d="M38.2186 70.6125H38.2578C38.3149 70.6214 38.3688 70.6445 38.4148 70.6795C38.4607 70.7145 38.497 70.7604 38.5206 70.813L43.9005 80.7312L47.4741 70.8854C47.4941 70.8111 47.5365 70.7446 47.5954 70.6949C47.6544 70.6452 47.7271 70.6145 47.804 70.6069C47.8819 70.6134 47.9559 70.6436 48.0159 70.6934C48.076 70.7432 48.1191 70.8103 48.1396 70.8854L50.8351 78.3644C50.8805 78.4784 50.8887 78.6038 50.8586 78.7227C50.8285 78.8416 50.7615 78.9481 50.6673 79.0271C50.4828 79.1441 50.2591 79.0271 50.1696 78.7988L47.804 72.2386L44.2976 81.9062C44.2795 81.9751 44.2419 82.0375 44.1894 82.0858C44.1369 82.1342 44.0716 82.1665 44.0012 82.1791C43.9315 82.1832 43.8621 82.1663 43.8023 82.1305C43.7424 82.0947 43.6948 82.0418 43.6656 81.9786L38.1627 71.8377L29.7741 82.0566C29.7436 82.0987 29.7029 82.1324 29.6558 82.1545C29.6087 82.1766 29.5567 82.1865 29.5047 82.1832C29.4527 82.1798 29.4025 82.1634 29.3586 82.1354C29.3147 82.1074 29.2787 82.0688 29.254 82.0232C29.1825 81.92 29.1443 81.7977 29.1443 81.6723C29.1443 81.547 29.1825 81.4247 29.254 81.3215L37.9502 70.7406C37.982 70.7001 38.0228 70.6675 38.0693 70.6453C38.1159 70.6231 38.167 70.6119 38.2186 70.6125Z" fill="#91B9B4"/>
    <path d="M20.7814 70.6125H20.7423C20.6856 70.6228 20.6323 70.6463 20.5866 70.6812C20.5409 70.7161 20.5041 70.7612 20.4794 70.813L15.0995 80.7368L11.5259 70.8909C11.5059 70.8166 11.4635 70.7502 11.4046 70.7005C11.3456 70.6507 11.2729 70.62 11.196 70.6125C11.1181 70.6189 11.0441 70.6491 10.9841 70.699C10.924 70.7488 10.8809 70.8158 10.8604 70.8909L8.1649 78.37C8.11555 78.4839 8.1058 78.6109 8.1372 78.731C8.16861 78.851 8.23937 78.9572 8.33827 79.0327C8.52282 79.1496 8.74092 79.0327 8.8304 78.8043L11.1848 72.2442L14.6913 81.9118C14.7098 81.9815 14.7481 82.0443 14.8017 82.0927C14.8553 82.1411 14.9218 82.1731 14.9932 82.1847C15.0622 82.1884 15.1306 82.1713 15.1895 82.1355C15.2484 82.0997 15.295 82.0469 15.3232 81.9842L20.8261 71.8432L29.2148 82.0622C29.2452 82.1042 29.2859 82.1379 29.333 82.1601C29.3801 82.1822 29.4321 82.1921 29.4841 82.1887C29.5361 82.1854 29.5864 82.169 29.6302 82.141C29.6741 82.113 29.7101 82.0744 29.7349 82.0287C29.8063 81.9256 29.8445 81.8032 29.8445 81.6779C29.8445 81.5526 29.8063 81.4302 29.7349 81.3271L21.0386 70.7461C21.0085 70.7061 20.9698 70.6733 20.9253 70.6502C20.8808 70.6271 20.8316 70.6142 20.7814 70.6125Z" fill="#91B9B4"/>
    </g>
    <defs>
    <clipPath id="clip0_46_908">
    <rect width="59" height="248" fill="white" transform="translate(0 0.5)"/>
    </clipPath>
    </defs>
    </svg>
    