<svg width="78" height="143" viewBox="0 0 78 143" fill="none" xmlns="http://www.w3.org/2000/svg">
<path d="M0 0.140625V287.5H77.201V0.140625H0ZM38.6005 87.7873C38.6005 87.7873 23.2537 87.0587 12.5314 11.4444C12.5314 11.4444 21.3066 8.04406 38.6005 8.04406C55.8944 8.04406 64.6697 11.4444 64.6697 11.4444C53.9407 87.0587 38.6005 87.7873 38.6005 87.7873Z" fill="#F18B76"/>
<path d="M38.6009 7.95216C55.7567 7.95216 64.4662 11.3 64.4662 11.3C53.8359 86.2775 38.6141 86.9996 38.6141 86.9996C38.6141 86.9996 23.3791 86.3038 12.7489 11.3C12.7489 11.3 21.4517 7.9259 38.6009 7.9259C18.9981 7.9259 9.05853 11.7857 9.05853 11.7857C21.2084 97.4762 38.6009 98.3034 38.6009 98.3034C38.6009 98.3034 56.0001 97.4762 68.1434 11.7857C68.1434 11.812 58.2038 7.95216 38.6009 7.95216Z" fill="#EB5A3C"/>
<path d="M77.2012 0.993988H0.000152588V1.23835H77.2012V0.993988Z" fill="#EB5A3C"/>
<path d="M77.2012 3.17993H0.000152588V3.42429H77.2012V3.17993Z" fill="#EB5A3C"/>
<path d="M77.2012 5.35925H0.000152588V5.60361H77.2012V5.35925Z" fill="#EB5A3C"/>
<path d="M77.2012 7.54517H0.000152588V7.78953H77.2012V7.54517Z" fill="#EB5A3C"/>
<path d="M18.1755 9.82357L18.2413 9.77734L18.3268 9.73111H0.000152588V9.98868H16.656C16.9977 9.91302 17.3456 9.86881 17.6953 9.85659L18.1755 9.82357Z" fill="#EB5A3C"/>
<path d="M59.0914 9.73111C59.3556 9.79201 59.6133 9.87826 59.861 9.98868H77.2142V9.74432L59.0914 9.73111Z" fill="#EB5A3C"/>
<path d="M12.4986 11.917H0.000152588V12.1614H12.3144C12.3703 12.0759 12.4319 11.9942 12.4986 11.917Z" fill="#EB5A3C"/>
<path d="M64.4064 11.917C64.505 11.9962 64.6037 12.0755 64.6958 12.1614H77.1943V11.917H64.4064Z" fill="#EB5A3C"/>
<path d="M11.7948 14.0964H0.000152588V14.3407H11.7356L11.7948 14.0964Z" fill="#EB5A3C"/>
<path d="M66.0777 14.0964L66.1763 14.3407H77.2013V14.0964H66.0777Z" fill="#EB5A3C"/>
<path d="M11.6566 16.2823H0.000152588V16.5531H11.6895C11.6763 16.4474 11.6632 16.3681 11.6566 16.2823Z" fill="#EB5A3C"/>
<path d="M66.6232 16.2823C66.6232 16.3681 66.6232 16.4474 66.6232 16.5266H77.1877V16.2823H66.6232Z" fill="#EB5A3C"/>
<path d="M12.3013 18.4682H0.000152588V18.7126H12.4197L12.3013 18.4682Z" fill="#EB5A3C"/>
<path d="M66.4003 18.4682C66.3823 18.5513 66.3581 18.633 66.328 18.7126H77.2016V18.4682H66.4003Z" fill="#EB5A3C"/>
<path d="M13.7221 20.6541H0.000152588V20.8985H13.709C13.7066 20.8168 13.711 20.7351 13.7221 20.6541Z" fill="#EB5A3C"/>
<path d="M65.1561 20.6541V20.8985H77.2006V20.6541H65.1561Z" fill="#EB5A3C"/>
<path d="M13.6432 22.8334H0.000152588V23.0778H13.6235L13.6432 22.8334Z" fill="#EB5A3C"/>
<path d="M65.0375 22.8334L64.998 23.0778H77.2004V22.8334H65.0375Z" fill="#EB5A3C"/>
<path d="M13.4459 25.0194H0.000152588V25.2637H13.4327C13.4393 25.1845 13.4393 25.0854 13.4459 25.0194Z" fill="#EB5A3C"/>
<path d="M64.6039 25.0194L64.5447 25.2637H77.2011V25.0194H64.6039Z" fill="#EB5A3C"/>
<path d="M13.4459 27.2053H0.000152588V27.4497H13.4656L13.4459 27.2053Z" fill="#EB5A3C"/>
<path d="M63.9131 27.2053C63.9131 27.2845 63.8539 27.3638 63.821 27.4497H77.2009V27.2053H63.9131Z" fill="#EB5A3C"/>
<path d="M13.8998 29.3912H0.000152588V29.6356H13.9853C13.9524 29.5563 13.9261 29.4705 13.8998 29.3912Z" fill="#EB5A3C"/>
<path d="M63.005 29.3912C63.005 29.4705 62.9326 29.5497 62.8931 29.6356H77.2006V29.3912H63.005Z" fill="#EB5A3C"/>
<path d="M15.2943 31.5706H0.000152588V31.8149H15.3075C15.3009 31.7357 15.2943 31.6498 15.2943 31.5706Z" fill="#EB5A3C"/>
<path d="M61.9394 31.5706L61.821 31.8149H77.2007V31.5706H61.9394Z" fill="#EB5A3C"/>
<path d="M15.4719 33.7565H0.000152588V34.0008H15.4982C15.4851 33.9216 15.4785 33.8357 15.4719 33.7565Z" fill="#EB5A3C"/>
<path d="M62.1237 33.7565V34.0008H77.2008V33.7565H62.1237Z" fill="#EB5A3C"/>
<path d="M15.7877 35.9424H0.000152588V36.1867H15.7877C15.7877 36.1009 15.7877 36.0216 15.7877 35.9424Z" fill="#EB5A3C"/>
<path d="M62.0189 35.9424C62.0189 36.0216 62.0189 36.1009 62.0189 36.1867H77.2276V35.9424H62.0189Z" fill="#EB5A3C"/>
<path d="M16.11 38.1283H0.000152588V38.3727H16.1561C16.1363 38.2868 16.1232 38.2142 16.11 38.1283Z" fill="#EB5A3C"/>
<path d="M61.8348 38.1283C61.8348 38.2076 61.8348 38.2868 61.8348 38.3727H77.2606V38.1283H61.8348Z" fill="#EB5A3C"/>
<path d="M61.4995 40.3076L61.46 40.552H77.2015V40.3076H61.4995Z" fill="#EB5A3C"/>
<path d="M16.531 40.3076H0.000152588V40.552H16.5836C16.5639 40.4728 16.5507 40.3935 16.531 40.3076Z" fill="#EB5A3C"/>
<path d="M17.0112 42.4936H0.000152588V42.738H17.1033L17.0112 42.4936Z" fill="#EB5A3C"/>
<path d="M61.1039 42.4936C61.1039 42.5794 61.1039 42.6587 61.0579 42.738H77.2006V42.4936H61.1039Z" fill="#EB5A3C"/>
<path d="M60.6236 44.6795C60.6094 44.7622 60.5896 44.8438 60.5644 44.9238H77.2005V44.6795H60.6236Z" fill="#EB5A3C"/>
<path d="M17.4717 44.6795H0.000152588V44.9238H17.5177C17.5046 44.8446 17.4848 44.7785 17.4717 44.6795Z" fill="#EB5A3C"/>
<path d="M17.965 46.8654H0.000152588V47.1098H17.9914C17.9848 47.0239 17.9716 46.9447 17.965 46.8654Z" fill="#EB5A3C"/>
<path d="M60.0712 46.8654C60.0712 46.9447 60.0252 47.0239 60.0055 47.1098H77.2007V46.8654H60.0712Z" fill="#EB5A3C"/>
<path d="M18.2216 49.0448H0.000152588V49.2891H18.2479C18.2413 49.2099 18.2347 49.1306 18.2216 49.0448Z" fill="#EB5A3C"/>
<path d="M59.4338 49.0448C59.4338 49.1306 59.3812 49.2099 59.3615 49.2891H77.2014V49.0448H59.4338Z" fill="#EB5A3C"/>
<path d="M18.4979 51.2307H0.000152588V51.475H18.5308C18.5176 51.3958 18.511 51.343 18.4979 51.2307Z" fill="#EB5A3C"/>
<path d="M58.7358 51.2307C58.7358 51.3165 58.6766 51.3958 58.6503 51.475H77.2007V51.2307H58.7358Z" fill="#EB5A3C"/>
<path d="M18.8399 53.4166H0.000152588V53.661H18.886C18.8663 53.5817 18.8531 53.4958 18.8399 53.4166Z" fill="#EB5A3C"/>
<path d="M57.9727 53.4166C57.9727 53.4958 57.9135 53.5817 57.8872 53.661H77.2006V53.4166H57.9727Z" fill="#EB5A3C"/>
<path d="M19.2938 55.6025H0.000152588V55.8469H19.3596C19.3399 55.761 19.3136 55.6818 19.2938 55.6025Z" fill="#EB5A3C"/>
<path d="M57.1634 55.6025C57.1305 55.6818 57.0976 55.761 57.0713 55.8469H77.2004V55.6025H57.1634Z" fill="#EB5A3C"/>
<path d="M19.9911 57.7819H0.000152588V58.0262H20.0832C20.0503 57.947 20.0174 57.8677 19.9911 57.7819Z" fill="#EB5A3C"/>
<path d="M56.3218 57.7819C56.3218 57.8677 56.2626 57.947 56.2297 58.0262H77.2008V57.7819H56.3218Z" fill="#EB5A3C"/>
<path d="M20.866 59.9678H0.000152588V60.2121H20.9647L20.866 59.9678Z" fill="#EB5A3C"/>
<path d="M55.4996 59.9678C55.4667 60.047 55.4404 60.1329 55.4075 60.2121H77.2009V59.9678H55.4996Z" fill="#EB5A3C"/>
<path d="M21.8198 62.1537H0.000152588V62.398H21.9382L21.8198 62.1537Z" fill="#EB5A3C"/>
<path d="M54.6643 62.1537L54.5656 62.398H77.201V62.1537H54.6643Z" fill="#EB5A3C"/>
<path d="M22.6882 64.3396H0.000152588V64.584H22.7605C22.7342 64.5047 22.7145 64.4189 22.6882 64.3396Z" fill="#EB5A3C"/>
<path d="M53.7693 64.3396L53.6641 64.584H77.2007V64.3396H53.7693Z" fill="#EB5A3C"/>
<path d="M23.5236 66.519H0.000152588V66.7633H23.6354C23.5959 66.6841 23.5565 66.6048 23.5236 66.519Z" fill="#EB5A3C"/>
<path d="M52.7699 66.519L52.6515 66.7633H77.2011V66.519H52.7699Z" fill="#EB5A3C"/>
<path d="M51.6583 68.7049C51.6188 68.7841 51.5793 68.87 51.5333 68.9492H77.188V68.7049H51.6583Z" fill="#EB5A3C"/>
<path d="M24.78 68.7049H0.000152588V68.9492H24.9576L24.78 68.7049Z" fill="#EB5A3C"/>
<path d="M25.4378 70.8908H0.000152588V71.1351H25.4904C25.4707 71.0361 25.451 70.97 25.4378 70.8908Z" fill="#EB5A3C"/>
<path d="M50.6515 70.8908C50.6515 70.97 50.5923 71.0559 50.5659 71.1351H77.2008V70.8908H50.6515Z" fill="#EB5A3C"/>
<path d="M25.9509 73.0767H0.000152588V73.3211H26.0167C25.9904 73.2352 25.9706 73.156 25.9509 73.0767Z" fill="#EB5A3C"/>
<path d="M50.0267 73.0767C50.0267 73.156 50.0267 73.2352 49.9806 73.3211H77.201V73.0767H50.0267Z" fill="#EB5A3C"/>
<path d="M26.6087 75.2561H0.000152588V75.5004H26.6942C26.6679 75.4212 26.6416 75.3419 26.6087 75.2561Z" fill="#EB5A3C"/>
<path d="M49.8159 75.2561L49.7764 75.5004H77.2007V75.2561H49.8159Z" fill="#EB5A3C"/>
<path d="M49.2304 77.442C49.2304 77.5278 49.1514 77.6071 49.1185 77.6863H77.2006V77.442H49.2304Z" fill="#EB5A3C"/>
<path d="M27.4178 77.442H0.000152588V77.6863H27.5165L27.4178 77.442Z" fill="#EB5A3C"/>
<path d="M47.7436 79.6279L47.4871 79.8722H77.2005V79.6279H47.7436Z" fill="#EB5A3C"/>
<path d="M28.3717 79.6279H0.000152588V79.8722H28.4901L28.3717 79.6279Z" fill="#EB5A3C"/>
<path d="M29.4834 81.8138H0.000152588V82.0582H29.6018L29.4834 81.8138Z" fill="#EB5A3C"/>
<path d="M45.0598 81.8138C45.0598 81.8931 45.0006 81.9723 44.9743 82.0582H77.2071V81.8138H45.0598Z" fill="#EB5A3C"/>
<path d="M30.9174 84.2177C30.8714 84.1451 30.8253 84.0724 30.7858 83.9998H0.000152588V84.2375H30.9174C30.9174 84.2375 30.9174 84.2243 30.9174 84.2177Z" fill="#EB5A3C"/>
<path d="M44.0737 83.9998L43.9093 84.2375H77.2275V83.9998H44.0737Z" fill="#EB5A3C"/>
<path d="M32.5882 86.1791H0.000152588V86.4234H32.8908L32.5882 86.1791Z" fill="#EB5A3C"/>
<path d="M42.0999 86.1791L41.7776 86.4234H77.2338V86.1791H42.0999Z" fill="#EB5A3C"/>
<path d="M77.2012 88.365H0.000152588V88.6094H77.2012V88.365Z" fill="#EB5A3C"/>
<path d="M77.2012 90.5509H0.000152588V90.7953H77.2012V90.5509Z" fill="#EB5A3C"/>
<path d="M77.2012 92.7368H0.000152588V92.9812H77.2012V92.7368Z" fill="#EB5A3C"/>
<path d="M77.2012 94.9162H0.000152588V95.1605H77.2012V94.9162Z" fill="#EB5A3C"/>
<path d="M77.2012 97.1021H0.000152588V97.3465H77.2012V97.1021Z" fill="#EB5A3C"/>
<path d="M77.2012 99.288H0.000152588V99.5324H77.2012V99.288Z" fill="#EB5A3C"/>
<path d="M77.2012 101.474H0.000152588V101.718H77.2012V101.474Z" fill="#EB5A3C"/>
<path d="M77.2012 103.653H0.000152588V103.898H77.2012V103.653Z" fill="#EB5A3C"/>
<path d="M77.2012 105.839H0.000152588V106.084H77.2012V105.839Z" fill="#EB5A3C"/>
<path d="M77.2012 108.025H0.000152588V108.27H77.2012V108.025Z" fill="#EB5A3C"/>
<path d="M77.2012 110.211H0.000152588V110.455H77.2012V110.211Z" fill="#EB5A3C"/>
<path d="M77.2012 112.39H0.000152588V112.635H77.2012V112.39Z" fill="#EB5A3C"/>
<path d="M77.2012 114.576H0.000152588V114.821H77.2012V114.576Z" fill="#EB5A3C"/>
<path d="M77.2012 116.762H0.000152588V117.007H77.2012V116.762Z" fill="#EB5A3C"/>
<path d="M77.2012 118.948H0.000152588V119.193H77.2012V118.948Z" fill="#EB5A3C"/>
<path d="M77.2012 121.127H0.000152588V121.372H77.2012V121.127Z" fill="#EB5A3C"/>
<path d="M77.2012 123.313H0.000152588V123.558H77.2012V123.313Z" fill="#EB5A3C"/>
<path d="M77.2012 125.499H0.000152588V125.744H77.2012V125.499Z" fill="#EB5A3C"/>
<path d="M77.2012 127.685H0.000152588V127.93H77.2012V127.685Z" fill="#EB5A3C"/>
<path d="M77.2012 129.865H0.000152588V130.109H77.2012V129.865Z" fill="#EB5A3C"/>
<path d="M77.2012 132.05H0.000152588V132.295H77.2012V132.05Z" fill="#EB5A3C"/>
<path d="M77.2012 134.236H0.000152588V134.481H77.2012V134.236Z" fill="#EB5A3C"/>
<path d="M77.2012 136.422H0.000152588V136.667H77.2012V136.422Z" fill="#EB5A3C"/>
<path d="M77.2012 138.602H0.000152588V138.846H77.2012V138.602Z" fill="#EB5A3C"/>
<path d="M77.2012 140.788H0.000152588V141.032H77.2012V140.788Z" fill="#EB5A3C"/>
<path d="M77.2012 142.973H0.000152588V143.218H77.2012V142.973Z" fill="#EB5A3C"/>
</svg>
