<svg width="28" height="28" viewBox="0 0 28 28" fill="none" xmlns="http://www.w3.org/2000/svg">
    <path d="M14 0.666664C21.364 0.666664 27.3333 6.636 27.3333 14C27.3333 21.364 21.364 27.3333 14 27.3333C6.63596 27.3333 0.666626 21.364 0.666626 14C0.666626 6.636 6.63596 0.666664 14 0.666664ZM14 2.66666C10.9942 2.66666 8.11149 3.86071 5.98608 5.98612C3.86067 8.11153 2.66663 10.9942 2.66663 14C2.66663 17.0058 3.86067 19.8885 5.98608 22.0139C8.11149 24.1393 10.9942 25.3333 14 25.3333C17.0057 25.3333 19.8884 24.1393 22.0138 22.0139C24.1392 19.8885 25.3333 17.0058 25.3333 14C25.3333 10.9942 24.1392 8.11153 22.0138 5.98612C19.8884 3.86071 17.0057 2.66666 14 2.66666ZM14 7.33333C14.2652 7.33333 14.5195 7.43869 14.7071 7.62622C14.8946 7.81376 15 8.06811 15 8.33333V13H19.6666C19.9318 13 20.1862 13.1054 20.3737 13.2929C20.5613 13.4804 20.6666 13.7348 20.6666 14C20.6666 14.2652 20.5613 14.5196 20.3737 14.7071C20.1862 14.8946 19.9318 15 19.6666 15H15V19.6667C15 19.9319 14.8946 20.1862 14.7071 20.3738C14.5195 20.5613 14.2652 20.6667 14 20.6667C13.7347 20.6667 13.4804 20.5613 13.2929 20.3738C13.1053 20.1862 13 19.9319 13 19.6667V15H8.33329C8.06808 15 7.81372 14.8946 7.62619 14.7071C7.43865 14.5196 7.33329 14.2652 7.33329 14C7.33329 13.7348 7.43865 13.4804 7.62619 13.2929C7.81372 13.1054 8.06808 13 8.33329 13H13V8.33333C13 8.06811 13.1053 7.81376 13.2929 7.62622C13.4804 7.43869 13.7347 7.33333 14 7.33333Z" fill="currentColor"/>
    </svg>
    