<svg width="20" height="21" viewBox="0 0 20 21" fill="none" xmlns="http://www.w3.org/2000/svg">
    <g clip-path="url(#clip0_46_384)">
        <path d="M10.6583 18L2.5 9.84167V11.5083C2.5 11.95 2.675 12.375 2.99167 12.6833L9.48333 19.175C10.1333 19.825 11.1917 19.825 11.8417 19.175L17.0167 14C17.6667 13.35 17.6667 12.2917 17.0167 11.6417L10.6583 18Z" fill="currentColor" />
        <path d="M9.48333 15.0083C9.80833 15.3333 10.2333 15.5 10.6583 15.5C11.0833 15.5 11.5083 15.3333 11.8333 15.0083L17.0083 9.83333C17.6583 9.18333 17.6583 8.125 17.0083 7.475L10.5167 0.983333C10.2083 0.675 9.78333 0.5 9.34167 0.5H4.16667C3.25 0.5 2.5 1.25 2.5 2.16667V7.34167C2.5 7.78333 2.675 8.20833 2.99167 8.51667L9.48333 15.0083ZM4.16667 2.16667H9.34167L15.8333 8.65833L10.6583 13.8333L4.16667 7.34167V2.16667Z" fill="currentColor" />
        <path d="M6.04167 5.08333C6.61696 5.08333 7.08333 4.61696 7.08333 4.04167C7.08333 3.46637 6.61696 3 6.04167 3C5.46637 3 5 3.46637 5 4.04167C5 4.61696 5.46637 5.08333 6.04167 5.08333Z" fill="currentColor" />
    </g>
    <defs>
        <clipPath id="clip0_46_384">
            <rect width="20" height="20" fill="currentColor" transform="translate(0 0.5)" />
        </clipPath>
    </defs>
</svg>