<svg width="18" height="13" viewBox="0 0 18 13" fill="none" xmlns="http://www.w3.org/2000/svg">
    <path d="M3.37499 0.333336C2.6567 0.333336 1.96782 0.618677 1.45991 1.12659C0.951998 1.6345 0.666656 2.32337 0.666656 3.04167V10.125C0.666656 10.8433 0.951998 11.5322 1.45991 12.0401C1.96782 12.548 2.6567 12.8333 3.37499 12.8333H14.625C14.9807 12.8333 15.3328 12.7633 15.6614 12.6272C15.99 12.4911 16.2886 12.2916 16.5401 12.0401C16.7916 11.7886 16.9911 11.49 17.1272 11.1614C17.2633 10.8328 17.3333 10.4807 17.3333 10.125V3.04167C17.3333 2.68601 17.2633 2.33383 17.1272 2.00523C16.9911 1.67664 16.7916 1.37808 16.5401 1.12659C16.2886 0.875096 15.99 0.675602 15.6614 0.539496C15.3328 0.403389 14.9807 0.333336 14.625 0.333336H3.37499ZM1.91666 3.04167C1.91666 2.23667 2.56999 1.58334 3.37499 1.58334H5.66666V2.59C5.2828 2.42222 4.85728 2.37406 4.44564 2.45181C4.034 2.52955 3.65535 2.72959 3.35913 3.02581C3.06291 3.32203 2.86287 3.70068 2.78513 4.11232C2.70738 4.52396 2.75554 4.94948 2.92332 5.33334H1.91666V3.04167ZM6.91666 4.5C6.91666 4.33518 6.96553 4.17407 7.0571 4.03703C7.14867 3.89999 7.27881 3.79318 7.43109 3.7301C7.58336 3.66703 7.75091 3.65053 7.91256 3.68268C8.07422 3.71484 8.2227 3.7942 8.33925 3.91075C8.45579 4.02729 8.53516 4.17578 8.56731 4.33743C8.59946 4.49908 8.58296 4.66663 8.51989 4.81891C8.45682 4.97118 8.35001 5.10133 8.21297 5.19289C8.07592 5.28446 7.91481 5.33334 7.74999 5.33334H6.91666V4.5ZM5.66666 5.33334H4.83332C4.66851 5.33334 4.50739 5.28446 4.37035 5.19289C4.23331 5.10133 4.1265 4.97118 4.06342 4.81891C4.00035 4.66663 3.98385 4.49908 4.016 4.33743C4.04816 4.17578 4.12752 4.02729 4.24407 3.91075C4.36061 3.7942 4.5091 3.71484 4.67075 3.68268C4.8324 3.65053 4.99995 3.66703 5.15223 3.7301C5.3045 3.79318 5.43465 3.89999 5.52621 4.03703C5.61778 4.17407 5.66666 4.33518 5.66666 4.5V5.33334ZM5.66666 7.46667V11.5833H3.37499C2.98822 11.5833 2.61728 11.4297 2.34379 11.1562C2.0703 10.8827 1.91666 10.5118 1.91666 10.125V6.58334H4.78332L3.34999 8.01667C3.28858 8.07389 3.23933 8.14289 3.20517 8.21955C3.17101 8.29622 3.15264 8.37898 3.15116 8.4629C3.14968 8.54682 3.16512 8.63018 3.19655 8.708C3.22799 8.78582 3.27478 8.85652 3.33412 8.91587C3.39347 8.97522 3.46417 9.022 3.54199 9.05344C3.61982 9.08487 3.70317 9.10031 3.78709 9.09883C3.87101 9.09735 3.95377 9.07898 4.03044 9.04482C4.1071 9.01066 4.1761 8.96141 4.23332 8.9L5.66666 7.46667ZM6.91666 11.5833V7.46667L8.34999 8.9C8.40721 8.96141 8.47621 9.01066 8.55287 9.04482C8.62954 9.07898 8.7123 9.09735 8.79622 9.09883C8.88014 9.10031 8.9635 9.08487 9.04132 9.05344C9.11914 9.022 9.18984 8.97522 9.24919 8.91587C9.30854 8.85652 9.35532 8.78582 9.38676 8.708C9.41819 8.63018 9.43363 8.54682 9.43215 8.4629C9.43067 8.37898 9.4123 8.29622 9.37814 8.21955C9.34398 8.14289 9.29473 8.07389 9.23332 8.01667L7.79999 6.58334H16.0833V10.125C16.0833 10.3165 16.0456 10.5062 15.9723 10.6831C15.899 10.86 15.7916 11.0208 15.6562 11.1562C15.5208 11.2916 15.36 11.399 15.1831 11.4723C15.0061 11.5456 14.8165 11.5833 14.625 11.5833H6.91666ZM6.91666 2.59V1.58334H14.625C15.43 1.58334 16.0833 2.23667 16.0833 3.04167V5.33334H9.65999C9.82777 4.94948 9.87593 4.52396 9.79819 4.11232C9.72044 3.70068 9.5204 3.32203 9.22418 3.02581C8.92796 2.72959 8.54932 2.52955 8.13767 2.45181C7.72603 2.37406 7.30051 2.42222 6.91666 2.59Z" fill="currentColor"/>
    </svg>    